<svg width="181" height="40" viewBox="0 0 181 40" fill="none" xmlns="http://www.w3.org/2000/svg">
<path d="M0 0H181V40H0V0Z" fill="#E94D35"/>
<path d="M20.586 22.508H15.06L13.764 26H12.396L17.238 13.4H17.85C18.246 13.4 18.534 13.64 18.714 14.12L21.486 21.392H21.504V21.428L23.25 26H21.882L20.586 22.508ZM15.474 21.392H20.172L17.832 15.128H17.814L15.474 21.392ZM26.5343 13.4H32.6543C33.5783 13.4 34.3163 13.664 34.8683 14.192C35.4323 14.708 35.7143 15.392 35.7143 16.244V17.558C35.7143 18.194 35.5103 18.758 35.1023 19.25C34.6943 19.73 34.1483 20.072 33.4643 20.276V20.294C33.8243 20.486 34.1483 20.792 34.4363 21.212C34.7363 21.632 34.9643 22.106 35.1203 22.634L36.1103 26H34.7423L33.7523 22.634C33.5843 22.046 33.2903 21.572 32.8703 21.212C32.4623 20.852 32.0123 20.672 31.5203 20.672H27.8663V26H26.5343V13.4ZM32.1863 19.484C32.8463 19.484 33.3743 19.31 33.7703 18.962C34.1783 18.602 34.3823 18.134 34.3823 17.558V16.172C34.3823 15.692 34.2203 15.308 33.8963 15.02C33.5723 14.732 33.1463 14.588 32.6183 14.588H27.8663V19.484H32.1863ZM42.5664 14.552H38.5704V13.4H47.8944V14.552H43.8984V26H42.5664V14.552ZM58.6024 26C58.2304 26 57.9424 25.898 57.7384 25.694C57.5344 25.49 57.4324 25.202 57.4324 24.83V13.4H62.6524C63.5404 13.4 64.3204 13.574 64.9924 13.922C65.6644 14.258 66.1864 14.744 66.5584 15.38C66.9304 16.004 67.1164 16.724 67.1164 17.54V21.5C67.1164 22.976 66.7444 24.098 66.0004 24.866C65.2564 25.622 64.1644 26 62.7244 26H58.6024ZM62.6884 24.812C63.7084 24.812 64.4764 24.536 64.9924 23.984C65.5204 23.42 65.7844 22.592 65.7844 21.5V17.54C65.7844 16.664 65.4904 15.956 64.9024 15.416C64.3264 14.864 63.5644 14.588 62.6164 14.588H58.7644V24.812H62.6884ZM71.1813 13.4H72.5133V26H71.1813V13.4ZM77.0116 13.4H83.1316C84.0556 13.4 84.7936 13.664 85.3456 14.192C85.9096 14.708 86.1916 15.392 86.1916 16.244V17.558C86.1916 18.194 85.9876 18.758 85.5796 19.25C85.1716 19.73 84.6256 20.072 83.9416 20.276V20.294C84.3016 20.486 84.6256 20.792 84.9136 21.212C85.2136 21.632 85.4416 22.106 85.5976 22.634L86.5876 26H85.2196L84.2296 22.634C84.0616 22.046 83.7676 21.572 83.3476 21.212C82.9396 20.852 82.4896 20.672 81.9976 20.672H78.3436V26H77.0116V13.4ZM82.6636 19.484C83.3236 19.484 83.8516 19.31 84.2476 18.962C84.6556 18.602 84.8596 18.134 84.8596 17.558V16.172C84.8596 15.692 84.6976 15.308 84.3736 15.02C84.0496 14.732 83.6236 14.588 83.0956 14.588H78.3436V19.484H82.6636ZM91.3287 26C90.9567 26 90.6687 25.898 90.4647 25.694C90.2607 25.478 90.1587 25.184 90.1587 24.812V13.4H98.6187V14.552H91.4907V18.98H98.0787V20.132H91.4907V24.848H98.6187V26H91.3287ZM106.012 26.144C105.208 26.144 104.494 25.952 103.87 25.568C103.258 25.184 102.778 24.65 102.43 23.966C102.094 23.27 101.926 22.472 101.926 21.572V17.828C101.926 16.928 102.094 16.13 102.43 15.434C102.778 14.738 103.264 14.204 103.888 13.832C104.524 13.448 105.256 13.256 106.084 13.256H107.992C108.772 13.256 109.456 13.424 110.044 13.76C110.644 14.096 111.106 14.57 111.43 15.182C111.766 15.794 111.934 16.496 111.934 17.288H110.638C110.638 16.436 110.392 15.752 109.9 15.236C109.42 14.708 108.784 14.444 107.992 14.444H106.084C105.232 14.444 104.548 14.756 104.032 15.38C103.516 15.992 103.258 16.808 103.258 17.828V21.572C103.258 22.592 103.51 23.414 104.014 24.038C104.518 24.65 105.184 24.956 106.012 24.956H107.956C108.772 24.956 109.426 24.668 109.918 24.092C110.422 23.516 110.674 22.76 110.674 21.824H111.97C111.97 22.676 111.802 23.432 111.466 24.092C111.13 24.74 110.656 25.244 110.044 25.604C109.444 25.964 108.748 26.144 107.956 26.144H106.012ZM118.494 14.552H114.498V13.4H123.822V14.552H119.826V26H118.494V14.552ZM127.424 13.4H128.756V26H127.424V13.4ZM137.107 26.144C136.279 26.144 135.547 25.958 134.911 25.586C134.275 25.214 133.777 24.686 133.417 24.002C133.069 23.318 132.895 22.526 132.895 21.626V17.774C132.895 16.874 133.069 16.082 133.417 15.398C133.777 14.714 134.275 14.186 134.911 13.814C135.547 13.442 136.285 13.256 137.125 13.256H139.033C139.873 13.256 140.611 13.442 141.247 13.814C141.883 14.186 142.375 14.714 142.723 15.398C143.083 16.082 143.263 16.874 143.263 17.774V21.626C143.263 22.526 143.083 23.318 142.723 24.002C142.375 24.674 141.877 25.202 141.229 25.586C140.593 25.958 139.861 26.144 139.033 26.144H137.107ZM138.997 24.956C139.873 24.956 140.581 24.65 141.121 24.038C141.661 23.426 141.931 22.622 141.931 21.626V17.774C141.931 16.778 141.661 15.974 141.121 15.362C140.581 14.75 139.873 14.444 138.997 14.444H137.161C136.285 14.444 135.577 14.75 135.037 15.362C134.497 15.974 134.227 16.778 134.227 17.774V21.626C134.227 22.622 134.491 23.426 135.019 24.038C135.559 24.65 136.267 24.956 137.143 24.956H138.997ZM147.228 13.4H148.488L155.472 23.894V13.4H156.768V26H155.508L148.524 15.578V26H147.228V13.4Z" fill="white"/>
</svg>
