<svg width="213" height="40" viewBox="0 0 213 40" fill="none" xmlns="http://www.w3.org/2000/svg">
<path d="M0 0H213V40H0V0Z" fill="#E94D35"/>
<path d="M13.44 13.4H14.718L19.218 21.77L23.592 13.4H24.87V26H23.556V15.884L19.92 22.796C19.788 23.036 19.674 23.204 19.578 23.3C19.482 23.384 19.374 23.426 19.254 23.426H18.858L14.754 15.884V26H13.44V13.4ZM33.0406 26.144C32.2126 26.144 31.4806 25.958 30.8446 25.586C30.2086 25.214 29.7106 24.686 29.3506 24.002C29.0026 23.318 28.8286 22.526 28.8286 21.626V17.774C28.8286 16.874 29.0026 16.082 29.3506 15.398C29.7106 14.714 30.2086 14.186 30.8446 13.814C31.4806 13.442 32.2186 13.256 33.0586 13.256H34.9666C35.8066 13.256 36.5446 13.442 37.1806 13.814C37.8166 14.186 38.3086 14.714 38.6566 15.398C39.0166 16.082 39.1966 16.874 39.1966 17.774V21.626C39.1966 22.526 39.0166 23.318 38.6566 24.002C38.3086 24.674 37.8106 25.202 37.1626 25.586C36.5266 25.958 35.7946 26.144 34.9666 26.144H33.0406ZM34.9306 24.956C35.8066 24.956 36.5146 24.65 37.0546 24.038C37.5946 23.426 37.8646 22.622 37.8646 21.626V17.774C37.8646 16.778 37.5946 15.974 37.0546 15.362C36.5146 14.75 35.8066 14.444 34.9306 14.444H33.0946C32.2186 14.444 31.5106 14.75 30.9706 15.362C30.4306 15.974 30.1606 16.778 30.1606 17.774V21.626C30.1606 22.622 30.4246 23.426 30.9526 24.038C31.4926 24.65 32.2006 24.956 33.0766 24.956H34.9306ZM45.6777 14.552H41.6817V13.4H51.0057V14.552H47.0097V26H45.6777V14.552ZM54.608 13.4H55.94V26H54.608V13.4ZM64.2903 26.144C63.4623 26.144 62.7303 25.958 62.0943 25.586C61.4583 25.214 60.9603 24.686 60.6003 24.002C60.2523 23.318 60.0783 22.526 60.0783 21.626V17.774C60.0783 16.874 60.2523 16.082 60.6003 15.398C60.9603 14.714 61.4583 14.186 62.0943 13.814C62.7303 13.442 63.4683 13.256 64.3083 13.256H66.2163C67.0563 13.256 67.7943 13.442 68.4303 13.814C69.0663 14.186 69.5583 14.714 69.9063 15.398C70.2663 16.082 70.4463 16.874 70.4463 17.774V21.626C70.4463 22.526 70.2663 23.318 69.9063 24.002C69.5583 24.674 69.0603 25.202 68.4123 25.586C67.7763 25.958 67.0443 26.144 66.2163 26.144H64.2903ZM66.1803 24.956C67.0563 24.956 67.7643 24.65 68.3043 24.038C68.8443 23.426 69.1143 22.622 69.1143 21.626V17.774C69.1143 16.778 68.8443 15.974 68.3043 15.362C67.7643 14.75 67.0563 14.444 66.1803 14.444H64.3443C63.4683 14.444 62.7603 14.75 62.2203 15.362C61.6803 15.974 61.4103 16.778 61.4103 17.774V21.626C61.4103 22.622 61.6743 23.426 62.2023 24.038C62.7423 24.65 63.4503 24.956 64.3263 24.956H66.1803ZM74.4115 13.4H75.6715L82.6555 23.894V13.4H83.9515V26H82.6915L75.7075 15.578V26H74.4115V13.4ZM98.157 26.144C97.329 26.144 96.603 25.958 95.979 25.586C95.367 25.202 94.887 24.662 94.539 23.966C94.203 23.27 94.035 22.472 94.035 21.572V17.828C94.035 16.928 94.209 16.136 94.557 15.452C94.917 14.756 95.415 14.216 96.051 13.832C96.687 13.448 97.419 13.256 98.247 13.256H100.155C100.947 13.256 101.643 13.424 102.243 13.76C102.855 14.096 103.329 14.57 103.665 15.182C104.001 15.794 104.169 16.496 104.169 17.288H102.873C102.873 16.436 102.621 15.752 102.117 15.236C101.625 14.708 100.971 14.444 100.155 14.444H98.247C97.383 14.444 96.687 14.756 96.159 15.38C95.631 15.992 95.367 16.808 95.367 17.828V21.572C95.367 22.592 95.619 23.414 96.123 24.038C96.639 24.65 97.317 24.956 98.157 24.956H100.101C100.953 24.956 101.643 24.662 102.171 24.074C102.699 23.486 102.963 22.712 102.963 21.752V20.672H99.471V19.502H104.259V21.752C104.259 22.616 104.085 23.384 103.737 24.056C103.401 24.716 102.915 25.232 102.279 25.604C101.655 25.964 100.929 26.144 100.101 26.144H98.157ZM108.14 13.4H114.26C115.184 13.4 115.922 13.664 116.474 14.192C117.038 14.708 117.32 15.392 117.32 16.244V17.558C117.32 18.194 117.116 18.758 116.708 19.25C116.3 19.73 115.754 20.072 115.07 20.276V20.294C115.43 20.486 115.754 20.792 116.042 21.212C116.342 21.632 116.57 22.106 116.726 22.634L117.716 26H116.348L115.358 22.634C115.19 22.046 114.896 21.572 114.476 21.212C114.068 20.852 113.618 20.672 113.126 20.672H109.472V26H108.14V13.4ZM113.792 19.484C114.452 19.484 114.98 19.31 115.376 18.962C115.784 18.602 115.988 18.134 115.988 17.558V16.172C115.988 15.692 115.826 15.308 115.502 15.02C115.178 14.732 114.752 14.588 114.224 14.588H109.472V19.484H113.792ZM128.433 22.508H122.907L121.611 26H120.243L125.085 13.4H125.697C126.093 13.4 126.381 13.64 126.561 14.12L129.333 21.392H129.351V21.428L131.097 26H129.729L128.433 22.508ZM123.321 21.392H128.019L125.679 15.128H125.661L123.321 21.392ZM134.381 13.4H140.483C141.419 13.4 142.169 13.664 142.733 14.192C143.309 14.72 143.597 15.416 143.597 16.28V18.134C143.597 19.058 143.291 19.808 142.679 20.384C142.067 20.948 141.263 21.23 140.267 21.23H135.713V26H134.381V13.4ZM140.231 20.042C140.843 20.042 141.335 19.868 141.707 19.52C142.079 19.16 142.265 18.686 142.265 18.098V16.244C142.265 15.752 142.097 15.356 141.761 15.056C141.437 14.744 140.999 14.588 140.447 14.588H135.713V20.042H140.231ZM147.053 13.4H148.385V19.052H155.333V13.4H156.665V26H155.333V20.24H148.385V26H147.053V13.4ZM161.171 13.4H162.503V26H161.171V13.4ZM170.728 26.144C169.924 26.144 169.21 25.952 168.586 25.568C167.974 25.184 167.494 24.65 167.146 23.966C166.81 23.27 166.642 22.472 166.642 21.572V17.828C166.642 16.928 166.81 16.13 167.146 15.434C167.494 14.738 167.98 14.204 168.604 13.832C169.24 13.448 169.972 13.256 170.8 13.256H172.708C173.488 13.256 174.172 13.424 174.76 13.76C175.36 14.096 175.822 14.57 176.146 15.182C176.482 15.794 176.65 16.496 176.65 17.288H175.354C175.354 16.436 175.108 15.752 174.616 15.236C174.136 14.708 173.5 14.444 172.708 14.444H170.8C169.948 14.444 169.264 14.756 168.748 15.38C168.232 15.992 167.974 16.808 167.974 17.828V21.572C167.974 22.592 168.226 23.414 168.73 24.038C169.234 24.65 169.9 24.956 170.728 24.956H172.672C173.488 24.956 174.142 24.668 174.634 24.092C175.138 23.516 175.39 22.76 175.39 21.824H176.686C176.686 22.676 176.518 23.432 176.182 24.092C175.846 24.74 175.372 25.244 174.76 25.604C174.16 25.964 173.464 26.144 172.672 26.144H170.728ZM183.547 26.144C182.827 26.144 182.191 25.994 181.639 25.694C181.087 25.382 180.655 24.95 180.343 24.398C180.043 23.834 179.893 23.186 179.893 22.454H181.189C181.189 23.198 181.405 23.804 181.837 24.272C182.281 24.728 182.863 24.956 183.583 24.956H185.581C186.289 24.956 186.859 24.8 187.291 24.488C187.723 24.164 187.939 23.744 187.939 23.228V22.076C187.939 21.668 187.777 21.32 187.453 21.032C187.141 20.744 186.709 20.558 186.157 20.474L182.917 19.934C182.005 19.778 181.297 19.454 180.793 18.962C180.289 18.47 180.037 17.852 180.037 17.108V16.136C180.037 15.26 180.361 14.564 181.009 14.048C181.669 13.52 182.539 13.256 183.619 13.256H185.653C186.673 13.256 187.495 13.568 188.119 14.192C188.743 14.804 189.055 15.614 189.055 16.622H187.759C187.759 15.962 187.567 15.434 187.183 15.038C186.799 14.642 186.289 14.444 185.653 14.444H183.619C182.935 14.444 182.389 14.6 181.981 14.912C181.573 15.212 181.369 15.62 181.369 16.136V17.108C181.369 17.528 181.519 17.882 181.819 18.17C182.131 18.458 182.557 18.65 183.097 18.746L186.319 19.304C187.255 19.472 187.981 19.796 188.497 20.276C189.013 20.744 189.271 21.344 189.271 22.076V23.228C189.271 24.104 188.935 24.812 188.263 25.352C187.591 25.88 186.709 26.144 185.617 26.144H183.547Z" fill="white"/>
</svg>
