<svg width="150" height="40" viewBox="0 0 150 40" fill="none" xmlns="http://www.w3.org/2000/svg">
<path d="M0 0H150V40H0V0Z" fill="#E94D35"/>
<path d="M15.942 26C15.606 26 15.342 25.91 15.15 25.73C14.958 25.538 14.826 25.238 14.754 24.83L12.612 13.4H13.926L15.888 24.272H15.906L19.074 14.066H19.632C19.848 14.066 20.022 14.132 20.154 14.264C20.286 14.384 20.394 14.576 20.478 14.84L23.286 24.272H23.304L25.266 13.4H26.58L24.438 24.83C24.366 25.238 24.234 25.538 24.042 25.73C23.85 25.91 23.586 26 23.25 26H22.71L19.65 15.848H19.632L16.482 26H15.942ZM31.2375 26C30.8655 26 30.5775 25.898 30.3735 25.694C30.1695 25.478 30.0675 25.184 30.0675 24.812V13.4H38.5275V14.552H31.3995V18.98H37.9875V20.132H31.3995V24.848H38.5275V26H31.2375ZM43.4705 26C43.1225 26 42.8405 25.892 42.6245 25.676C42.4085 25.46 42.3005 25.178 42.3005 24.83V13.4H47.6285C48.6965 13.4 49.5545 13.658 50.2025 14.174C50.8625 14.678 51.1925 15.35 51.1925 16.19V17.144C51.1925 17.588 51.0905 18.014 50.8865 18.422C50.6825 18.818 50.4005 19.136 50.0405 19.376V19.394C50.6285 19.55 51.0965 19.856 51.4445 20.312C51.8045 20.756 51.9845 21.278 51.9845 21.878V22.742C51.9845 23.726 51.6725 24.518 51.0485 25.118C50.4245 25.706 49.5785 26 48.5105 26H43.4705ZM47.9885 19.088C48.5525 19.088 49.0025 18.914 49.3385 18.566C49.6865 18.206 49.8605 17.732 49.8605 17.144V16.19C49.8605 15.71 49.6505 15.326 49.2305 15.038C48.8225 14.738 48.2885 14.588 47.6285 14.588H43.6325V19.088H47.9885ZM48.3305 24.812C49.0505 24.812 49.6145 24.626 50.0225 24.254C50.4425 23.87 50.6525 23.366 50.6525 22.742V21.878C50.6525 21.374 50.4725 20.972 50.1125 20.672C49.7525 20.36 49.2785 20.204 48.6905 20.204H43.6325V24.812H48.3305ZM62.9442 26C62.5722 26 62.2842 25.898 62.0802 25.694C61.8762 25.49 61.7742 25.202 61.7742 24.83V13.4H66.9942C67.8822 13.4 68.6622 13.574 69.3342 13.922C70.0062 14.258 70.5282 14.744 70.9002 15.38C71.2722 16.004 71.4582 16.724 71.4582 17.54V21.5C71.4582 22.976 71.0862 24.098 70.3422 24.866C69.5982 25.622 68.5062 26 67.0662 26H62.9442ZM67.0302 24.812C68.0502 24.812 68.8182 24.536 69.3342 23.984C69.8622 23.42 70.1262 22.592 70.1262 21.5V17.54C70.1262 16.664 69.8322 15.956 69.2442 15.416C68.6682 14.864 67.9062 14.588 66.9582 14.588H63.1062V24.812H67.0302ZM76.5131 26C76.1411 26 75.8531 25.898 75.6491 25.694C75.4451 25.478 75.3431 25.184 75.3431 24.812V13.4H83.8031V14.552H76.6751V18.98H83.2631V20.132H76.6751V24.848H83.8031V26H76.5131ZM90.7981 26.144C90.0781 26.144 89.4421 25.994 88.8901 25.694C88.3381 25.382 87.9061 24.95 87.5941 24.398C87.2941 23.834 87.1441 23.186 87.1441 22.454H88.4401C88.4401 23.198 88.6561 23.804 89.0881 24.272C89.5321 24.728 90.1141 24.956 90.8341 24.956H92.8321C93.5401 24.956 94.1101 24.8 94.5421 24.488C94.9741 24.164 95.1901 23.744 95.1901 23.228V22.076C95.1901 21.668 95.0281 21.32 94.7041 21.032C94.3921 20.744 93.9601 20.558 93.4081 20.474L90.1681 19.934C89.2561 19.778 88.5481 19.454 88.0441 18.962C87.5401 18.47 87.2881 17.852 87.2881 17.108V16.136C87.2881 15.26 87.6121 14.564 88.2601 14.048C88.9201 13.52 89.7901 13.256 90.8701 13.256H92.9041C93.9241 13.256 94.7461 13.568 95.3701 14.192C95.9941 14.804 96.3061 15.614 96.3061 16.622H95.0101C95.0101 15.962 94.8181 15.434 94.4341 15.038C94.0501 14.642 93.5401 14.444 92.9041 14.444H90.8701C90.1861 14.444 89.6401 14.6 89.2321 14.912C88.8241 15.212 88.6201 15.62 88.6201 16.136V17.108C88.6201 17.528 88.7701 17.882 89.0701 18.17C89.3821 18.458 89.8081 18.65 90.3481 18.746L93.5701 19.304C94.5061 19.472 95.2321 19.796 95.7481 20.276C96.2641 20.744 96.5221 21.344 96.5221 22.076V23.228C96.5221 24.104 96.1861 24.812 95.5141 25.352C94.8421 25.88 93.9601 26.144 92.8681 26.144H90.7981ZM100.481 13.4H101.813V26H100.481V13.4ZM110.074 26.144C109.246 26.144 108.52 25.958 107.896 25.586C107.284 25.202 106.804 24.662 106.456 23.966C106.12 23.27 105.952 22.472 105.952 21.572V17.828C105.952 16.928 106.126 16.136 106.474 15.452C106.834 14.756 107.332 14.216 107.968 13.832C108.604 13.448 109.336 13.256 110.164 13.256H112.072C112.864 13.256 113.56 13.424 114.16 13.76C114.772 14.096 115.246 14.57 115.582 15.182C115.918 15.794 116.086 16.496 116.086 17.288H114.79C114.79 16.436 114.538 15.752 114.034 15.236C113.542 14.708 112.888 14.444 112.072 14.444H110.164C109.3 14.444 108.604 14.756 108.076 15.38C107.548 15.992 107.284 16.808 107.284 17.828V21.572C107.284 22.592 107.536 23.414 108.04 24.038C108.556 24.65 109.234 24.956 110.074 24.956H112.018C112.87 24.956 113.56 24.662 114.088 24.074C114.616 23.486 114.88 22.712 114.88 21.752V20.672H111.388V19.502H116.176V21.752C116.176 22.616 116.002 23.384 115.654 24.056C115.318 24.716 114.832 25.232 114.196 25.604C113.572 25.964 112.846 26.144 112.018 26.144H110.074ZM120.056 13.4H121.316L128.3 23.894V13.4H129.596V26H128.336L121.352 15.578V26H120.056V13.4Z" fill="white"/>
</svg>
