<svg width="130" height="40" viewBox="0 0 130 40" fill="none" xmlns="http://www.w3.org/2000/svg">
<path d="M0 0H130V40H0V0Z" fill="#E94D35"/>
<path d="M14.61 26C14.262 26 13.98 25.892 13.764 25.676C13.548 25.46 13.44 25.178 13.44 24.83V13.4H18.768C19.836 13.4 20.694 13.658 21.342 14.174C22.002 14.678 22.332 15.35 22.332 16.19V17.144C22.332 17.588 22.23 18.014 22.026 18.422C21.822 18.818 21.54 19.136 21.18 19.376V19.394C21.768 19.55 22.236 19.856 22.584 20.312C22.944 20.756 23.124 21.278 23.124 21.878V22.742C23.124 23.726 22.812 24.518 22.188 25.118C21.564 25.706 20.718 26 19.65 26H14.61ZM19.128 19.088C19.692 19.088 20.142 18.914 20.478 18.566C20.826 18.206 21 17.732 21 17.144V16.19C21 15.71 20.79 15.326 20.37 15.038C19.962 14.738 19.428 14.588 18.768 14.588H14.772V19.088H19.128ZM19.47 24.812C20.19 24.812 20.754 24.626 21.162 24.254C21.582 23.87 21.792 23.366 21.792 22.742V21.878C21.792 21.374 21.612 20.972 21.252 20.672C20.892 20.36 20.418 20.204 19.83 20.204H14.772V24.812H19.47ZM26.798 13.4H32.918C33.842 13.4 34.58 13.664 35.132 14.192C35.696 14.708 35.978 15.392 35.978 16.244V17.558C35.978 18.194 35.774 18.758 35.366 19.25C34.958 19.73 34.412 20.072 33.728 20.276V20.294C34.088 20.486 34.412 20.792 34.7 21.212C35 21.632 35.228 22.106 35.384 22.634L36.374 26H35.006L34.016 22.634C33.848 22.046 33.554 21.572 33.134 21.212C32.726 20.852 32.276 20.672 31.784 20.672H28.13V26H26.798V13.4ZM32.45 19.484C33.11 19.484 33.638 19.31 34.034 18.962C34.442 18.602 34.646 18.134 34.646 17.558V16.172C34.646 15.692 34.484 15.308 34.16 15.02C33.836 14.732 33.41 14.588 32.882 14.588H28.13V19.484H32.45ZM47.091 22.508H41.565L40.269 26H38.901L43.743 13.4H44.355C44.751 13.4 45.039 13.64 45.219 14.12L47.991 21.392H48.009V21.428L49.755 26H48.387L47.091 22.508ZM41.979 21.392H46.677L44.337 15.128H44.319L41.979 21.392ZM53.0393 13.4H54.2993L61.2833 23.894V13.4H62.5793V26H61.3193L54.3353 15.578V26H53.0393V13.4ZM68.077 26C67.705 26 67.417 25.898 67.213 25.694C67.009 25.49 66.907 25.202 66.907 24.83V13.4H72.127C73.015 13.4 73.795 13.574 74.467 13.922C75.139 14.258 75.661 14.744 76.033 15.38C76.405 16.004 76.591 16.724 76.591 17.54V21.5C76.591 22.976 76.219 24.098 75.475 24.866C74.731 25.622 73.639 26 72.199 26H68.077ZM72.163 24.812C73.183 24.812 73.951 24.536 74.467 23.984C74.995 23.42 75.259 22.592 75.259 21.5V17.54C75.259 16.664 74.965 15.956 74.377 15.416C73.801 14.864 73.039 14.588 72.091 14.588H68.239V24.812H72.163ZM80.6559 13.4H81.9879V26H80.6559V13.4ZM86.4862 13.4H87.7462L94.7303 23.894V13.4H96.0262V26H94.7662L87.7822 15.578V26H86.4862V13.4ZM104.116 26.144C103.288 26.144 102.562 25.958 101.938 25.586C101.326 25.202 100.846 24.662 100.498 23.966C100.162 23.27 99.994 22.472 99.994 21.572V17.828C99.994 16.928 100.168 16.136 100.516 15.452C100.876 14.756 101.374 14.216 102.01 13.832C102.646 13.448 103.378 13.256 104.206 13.256H106.114C106.906 13.256 107.602 13.424 108.202 13.76C108.814 14.096 109.288 14.57 109.624 15.182C109.96 15.794 110.128 16.496 110.128 17.288H108.832C108.832 16.436 108.58 15.752 108.076 15.236C107.584 14.708 106.93 14.444 106.114 14.444H104.206C103.342 14.444 102.646 14.756 102.118 15.38C101.59 15.992 101.326 16.808 101.326 17.828V21.572C101.326 22.592 101.578 23.414 102.082 24.038C102.598 24.65 103.276 24.956 104.116 24.956H106.06C106.912 24.956 107.602 24.662 108.13 24.074C108.658 23.486 108.922 22.712 108.922 21.752V20.672H105.43V19.502H110.218V21.752C110.218 22.616 110.044 23.384 109.696 24.056C109.36 24.716 108.874 25.232 108.238 25.604C107.614 25.964 106.888 26.144 106.06 26.144H104.116Z" fill="white"/>
</svg>
