<svg width="48" height="48" viewBox="0 0 48 48" fill="none" xmlns="http://www.w3.org/2000/svg">
<path d="M0 0H48V48H0V0Z" fill="#E94D35"/>
<path d="M26.956 23.52C27.508 23.772 27.94 24.12 28.252 24.564C28.564 25.008 28.72 25.53 28.72 26.13V26.85C28.72 27.834 28.39 28.632 27.73 29.244C27.07 29.844 26.2 30.144 25.12 30.144H23.374C22.678 30.144 22.06 29.994 21.52 29.694C20.98 29.382 20.56 28.95 20.26 28.398C19.972 27.846 19.828 27.21 19.828 26.49H21.124C21.124 27.234 21.328 27.834 21.736 28.29C22.156 28.734 22.702 28.956 23.374 28.956H25.12C25.804 28.956 26.35 28.764 26.758 28.38C27.178 27.996 27.388 27.486 27.388 26.85V26.13C27.388 25.458 27.184 24.96 26.776 24.636C26.38 24.3 25.81 24.132 25.066 24.132H23.158V22.98H25.066C25.726 22.98 26.236 22.812 26.596 22.476C26.968 22.14 27.154 21.654 27.154 21.018V20.298C27.154 19.734 26.968 19.284 26.596 18.948C26.236 18.612 25.756 18.444 25.156 18.444H23.41C22.762 18.444 22.24 18.672 21.844 19.128C21.448 19.572 21.25 20.166 21.25 20.91H19.918C19.918 20.19 20.062 19.554 20.35 19.002C20.65 18.45 21.064 18.024 21.592 17.724C22.12 17.412 22.726 17.256 23.41 17.256H25.156C26.164 17.256 26.968 17.532 27.568 18.084C28.18 18.636 28.486 19.374 28.486 20.298V21.018C28.486 21.582 28.348 22.08 28.072 22.512C27.808 22.944 27.436 23.28 26.956 23.52Z" fill="white"/>
</svg>
