<svg width="48" height="48" viewBox="0 0 48 48" fill="none" xmlns="http://www.w3.org/2000/svg">
<path d="M0 0H48V48H0V0Z" fill="#E94D35"/>
<path d="M19.936 28.812C19.936 28.152 20.056 27.582 20.296 27.102C20.536 26.61 20.92 26.166 21.448 25.77L25.912 22.386C26.536 21.93 26.848 21.378 26.848 20.73V20.154C26.848 19.638 26.674 19.224 26.326 18.912C25.978 18.6 25.516 18.444 24.94 18.444H23.284C22.648 18.444 22.138 18.666 21.754 19.11C21.382 19.542 21.196 20.124 21.196 20.856H19.864C19.864 19.764 20.17 18.894 20.782 18.246C21.406 17.586 22.228 17.256 23.248 17.256H24.94C25.912 17.256 26.692 17.52 27.28 18.048C27.88 18.576 28.18 19.278 28.18 20.154V20.73C28.18 21.738 27.7 22.596 26.74 23.304L22.402 26.526C21.97 26.838 21.67 27.162 21.502 27.498C21.346 27.822 21.268 28.26 21.268 28.812H28.36V30H19.936V28.812Z" fill="white"/>
</svg>
